<?xml version="1.0" standalone="no"?>
<!DOCTYPE svg PUBLIC "-//W3C//DTD SVG 20010904//EN"
 "http://www.w3.org/TR/2001/REC-SVG-20010904/DTD/svg10.dtd">
<svg version="1.0" xmlns="http://www.w3.org/2000/svg"
 width="360.000000pt" height="360.000000pt" viewBox="0 0 360.000000 360.000000"
 preserveAspectRatio="xMidYMid meet">
<metadata>
Created by potrace 1.14, written by Peter Selinger 2001-2017
</metadata>
<g transform="translate(0.000000,360.000000) scale(0.100000,-0.100000)"
fill="#000000" stroke="none">
<path d="M1800 2883 c-6 -32 -15 -75 -20 -95 -4 -20 -5 -39 -2 -43 3 -3 1 -5
-4 -5 -19 0 -33 16 -40 45 -4 17 -10 35 -15 40 -4 6 -8 15 -9 20 -1 6 -6 20
-11 33 -5 13 -9 27 -9 32 0 11 -25 20 -36 12 -5 -4 -10 -16 -12 -27 -1 -11 -5
-38 -8 -60 -4 -22 -7 -49 -8 -61 -6 -56 -31 -57 -47 -1 -7 23 -16 47 -20 52
-3 6 -10 25 -14 43 -6 28 -45 67 -45 44 0 -10 18 -67 30 -97 5 -11 19 -47 31
-80 35 -92 61 -103 74 -32 3 12 7 33 10 47 3 14 8 43 11 65 3 22 8 42 10 44 9
9 24 -16 26 -42 1 -15 5 -27 9 -27 3 0 14 -27 24 -59 15 -50 21 -59 38 -55 26
5 25 4 31 44 3 19 13 69 23 110 21 87 22 102 6 107 -7 3 -16 -18 -23 -54z"/>
<path d="M1951 2921 c-6 -4 -14 -32 -17 -62 -3 -30 -7 -65 -10 -79 -19 -97
-11 -115 54 -118 18 -2 36 -3 40 -3 4 -1 16 -1 27 0 32 3 -3 18 -50 23 -35 3
-40 7 -43 32 -2 16 -1 39 2 52 5 20 11 22 52 18 33 -3 45 -1 42 8 -2 6 -20 14
-39 16 -40 4 -50 17 -42 52 9 39 10 39 62 33 59 -7 81 13 24 22 -21 3 -49 8
-63 10 -14 2 -32 0 -39 -4z"/>
<path d="M2191 2863 c-5 -11 -26 -65 -45 -121 -38 -110 -36 -118 20 -128 15
-3 36 -10 46 -15 11 -6 23 -8 26 -4 7 7 -8 20 -57 47 -30 17 -30 17 -16 52 9
20 13 36 10 36 -3 0 0 10 7 23 7 12 13 24 13 27 1 3 7 23 13 45 13 43 1 70
-17 38z"/>
<path d="M2362 2728 c-18 -35 -44 -84 -59 -110 -22 -37 -25 -50 -16 -59 9 -9
16 -5 30 20 10 18 26 44 37 58 18 24 19 24 40 5 11 -10 32 -19 46 -20 21 -1
19 3 -17 25 -45 27 -51 40 -30 76 15 27 30 38 37 29 3 -4 24 -15 47 -24 35
-13 41 -14 36 -1 -5 13 -92 63 -110 63 -5 0 -23 -28 -41 -62z"/>
<path d="M1147 2773 c-3 -5 22 -58 55 -120 41 -75 65 -110 74 -106 10 4 -1 34
-44 119 -51 102 -72 129 -85 107z"/>
<path d="M1010 2705 c-79 -50 -90 -58 -90 -68 0 -11 43 3 52 17 5 6 8 7 8 1 0
-5 4 -4 9 4 6 10 17 2 40 -33 18 -25 29 -46 26 -46 -3 0 3 -10 15 -22 11 -12
20 -27 20 -33 0 -12 41 -55 53 -55 17 0 3 33 -49 116 -30 49 -56 92 -57 96 -1
3 13 18 32 32 54 40 8 33 -59 -9z"/>
<path d="M2603 2647 c-24 -24 -71 -55 -95 -63 -10 -4 -18 -9 -18 -13 0 -3 -18
-17 -40 -31 -44 -27 -54 -52 -17 -42 12 3 28 11 34 18 15 15 76 -3 66 -20 -3
-5 -2 -6 4 -3 9 6 45 -27 38 -35 -2 -1 -5 -18 -8 -35 -4 -26 -2 -33 11 -33 12
0 22 18 35 68 9 37 24 92 32 122 8 30 13 61 10 68 -6 15 -36 15 -52 -1z m13
-59 c-4 -13 -9 -34 -12 -48 -10 -45 -23 -52 -52 -25 -15 14 -31 25 -36 25 -23
0 73 68 98 70 4 0 5 -10 2 -22z"/>
<path d="M836 2571 c-3 -4 11 -26 32 -49 20 -22 49 -53 65 -70 l27 -31 -36 5
c-20 2 -62 13 -95 24 -91 31 -118 25 -100 -22 6 -12 10 -19 10 -15 1 5 13 -6
29 -25 15 -18 40 -47 55 -64 15 -18 34 -39 40 -48 8 -11 19 -15 30 -10 12 4
15 10 7 19 -5 6 -7 15 -3 18 3 4 1 7 -5 7 -13 0 -122 107 -122 120 0 10 69 -8
88 -22 6 -6 12 -7 12 -3 0 4 7 2 15 -5 8 -7 15 -10 15 -7 0 3 21 0 48 -8 56
-17 86 -12 73 13 -5 9 -37 46 -70 81 -34 34 -61 65 -61 68 0 7 -33 32 -42 33
-4 0 -9 -4 -12 -9z"/>
<path d="M2744 2462 c-28 -26 -68 -62 -88 -80 -35 -31 -40 -52 -13 -52 7 0 23
13 37 29 13 17 27 28 32 25 4 -3 8 0 8 6 0 7 6 8 19 0 23 -12 22 -43 -4 -99
-12 -28 -14 -44 -7 -57 9 -16 13 -12 30 27 11 24 23 53 26 64 4 14 16 21 37
23 53 4 73 41 51 94 -12 29 -50 68 -66 68 -6 0 -34 -22 -62 -48z m111 -36 c0
-25 -26 -56 -47 -56 -7 0 -24 9 -38 19 -22 18 -23 21 -10 45 7 14 19 26 27 26
7 0 13 5 13 11 0 6 12 3 28 -6 18 -11 28 -25 27 -39z"/>
<path d="M1466 2397 c-55 -72 -60 -132 -16 -179 29 -30 31 -30 50 -13 11 10
29 37 40 60 22 45 20 74 -6 126 -20 41 -40 43 -68 6z"/>
<path d="M2080 2423 c-31 -13 -49 -48 -50 -96 0 -71 42 -140 80 -130 43 11 58
70 38 143 -4 14 -48 91 -51 89 -1 0 -9 -3 -17 -6z"/>
<path d="M1674 2303 c-28 -21 -63 -50 -79 -65 -17 -16 -33 -28 -37 -28 -5 0
-8 -4 -8 -10 0 -9 -25 -42 -58 -76 -7 -8 -11 -14 -7 -14 3 0 -1 -12 -9 -28
-22 -42 -25 -84 -10 -128 20 -57 18 -58 -25 -24 -66 54 -160 47 -294 -21 -40
-21 -52 -30 -87 -61 -10 -9 -21 -14 -24 -10 -3 3 -6 0 -6 -6 0 -13 13 -16 24
-5 19 19 190 24 234 7 17 -7 32 -11 32 -8 0 10 116 -75 157 -114 23 -23 54
-59 69 -82 15 -22 30 -40 34 -40 8 0 -4 59 -41 200 -2 8 -7 17 -10 20 -4 3 -9
15 -13 27 -6 18 -4 22 8 17 8 -3 17 -12 20 -20 3 -9 10 -12 16 -9 5 3 10 -1
10 -9 0 -8 10 -18 23 -22 12 -4 24 -10 27 -13 11 -14 78 -51 94 -51 9 0 16 -4
16 -10 0 -5 7 -10 16 -10 11 0 5 13 -21 43 -91 106 -137 278 -105 397 10 40
53 126 69 140 13 11 44 50 39 50 -2 0 -27 -17 -54 -37z"/>
<path d="M1861 2323 c8 -9 22 -25 32 -35 10 -10 30 -44 45 -76 24 -50 27 -69
27 -152 -1 -74 -6 -108 -23 -155 -13 -33 -24 -66 -24 -72 -1 -7 -4 -13 -8 -13
-4 0 -20 -20 -36 -45 -15 -25 -31 -45 -35 -45 -4 0 -9 -7 -13 -15 -5 -15 5
-10 134 63 25 14 59 38 76 55 l32 29 -20 -59 c-25 -76 -29 -91 -32 -134 -1
-19 -6 -41 -10 -48 -12 -19 1 -25 19 -8 8 9 15 18 15 21 0 16 93 110 133 134
15 9 27 20 27 24 0 4 8 8 18 8 10 0 22 4 27 9 42 37 173 49 259 23 36 -11 66
-17 66 -14 0 21 -197 128 -255 138 -71 13 -152 3 -171 -21 -20 -26 -37 -18
-29 13 4 15 9 38 11 51 4 33 -31 123 -61 155 -13 14 -22 26 -20 26 2 0 -11 15
-28 33 -18 18 -33 32 -35 31 -2 -1 -16 10 -32 24 -65 60 -120 93 -89 55z"/>
<path d="M2945 2287 c-11 -7 -24 -18 -28 -24 -4 -7 -14 -13 -22 -13 -7 0 -20
-6 -27 -14 -8 -7 -29 -21 -48 -31 -58 -30 -59 -33 -21 -92 44 -67 73 -73 36
-8 l-25 46 25 23 c31 29 57 28 84 -3 24 -28 26 -23 7 22 -14 35 -12 40 31 64
19 11 24 9 42 -13 11 -14 23 -34 26 -45 7 -22 32 -26 32 -4 0 8 -5 15 -10 15
-6 0 -8 3 -4 6 8 8 -56 85 -70 83 -5 0 -17 -6 -28 -12z"/>
<path d="M579 2270 c-10 -7 -10 -14 1 -39 7 -17 16 -31 19 -31 4 0 33 -36 64
-80 32 -43 61 -82 66 -85 19 -11 19 13 1 48 -16 30 -18 41 -8 62 6 14 15 25
20 25 5 0 7 3 5 8 -3 4 1 13 9 20 19 17 16 17 40 4 16 -9 26 -8 40 3 23 16 19
21 -21 28 -16 3 -40 8 -51 11 -12 2 -38 7 -58 10 -20 3 -53 10 -75 15 -21 4
-45 5 -52 1z m101 -41 c55 -12 59 -20 32 -62 -18 -27 -19 -27 -40 -8 -12 10
-22 24 -22 30 0 6 -6 14 -14 17 -17 6 -30 34 -16 34 5 0 32 -5 60 -11z"/>
<path d="M1055 2082 c-11 -3 -31 -9 -45 -15 -14 -6 -28 -10 -32 -9 -9 2 3 -28
22 -55 18 -24 75 -50 108 -47 12 1 30 2 40 3 9 1 28 10 41 20 l24 18 -22 36
c-28 45 -72 61 -136 49z"/>
<path d="M2453 2083 c-28 -5 -73 -51 -73 -73 0 -25 55 -58 93 -54 60 4 81 14
109 46 15 18 28 36 28 39 0 24 -104 52 -157 42z"/>
<path d="M470 2061 c0 -10 13 -15 33 -12 4 0 7 -4 7 -10 0 -5 4 -8 9 -5 4 3
16 0 26 -8 16 -11 16 -17 4 -52 -7 -21 -20 -47 -28 -56 -15 -16 -18 -16 -58 2
-27 12 -45 15 -49 9 -3 -6 -4 -12 -2 -14 8 -9 101 -45 114 -45 8 0 14 -4 14
-8 0 -12 89 -42 105 -35 21 8 2 29 -33 38 -38 9 -77 36 -64 44 6 3 13 18 16
33 4 24 23 68 29 68 2 0 22 -9 45 -20 44 -21 72 -26 72 -11 0 13 -22 27 -55
35 -16 4 -49 17 -73 28 -56 25 -112 35 -112 19z"/>
<path d="M3133 2013 c-8 -3 -8 -14 -1 -39 8 -30 7 -38 -9 -50 -10 -7 -23 -12
-30 -9 -6 2 -13 1 -15 -3 -2 -4 -32 -17 -68 -28 -40 -13 -66 -28 -68 -38 -3
-14 1 -14 25 -5 15 6 35 12 43 14 8 2 29 9 45 16 33 13 59 20 89 22 14 2 22
-7 28 -30 5 -18 15 -33 22 -33 12 0 1 43 -45 176 -2 6 -9 9 -16 7z"/>
<path d="M376 1774 c-19 -18 -14 -80 8 -102 15 -15 79 -25 70 -11 -3 5 2 9 10
9 8 0 23 13 32 29 19 32 49 49 76 43 25 -5 33 -60 14 -97 -20 -38 -11 -46 17
-15 22 25 29 73 14 98 -5 6 -5 12 -2 12 20 0 -33 35 -57 38 -28 3 -52 -15
-100 -75 -9 -12 -25 -20 -35 -18 -10 2 -21 4 -24 4 -12 2 -17 39 -6 50 6 6 8
11 4 11 -4 0 -3 9 3 20 13 24 -2 27 -24 4z"/>
<path d="M3105 1728 c-16 -5 -38 -6 -47 -4 -10 2 -21 0 -24 -5 -3 -5 -10 -7
-15 -4 -13 8 -49 -4 -49 -16 0 -6 21 -10 48 -9 26 1 53 1 60 1 29 -2 1 -77
-32 -85 -23 -6 -66 -38 -66 -50 0 -3 9 -6 20 -6 11 0 20 5 20 10 0 6 6 10 13
10 6 0 23 9 37 20 30 24 48 25 71 5 41 -38 98 15 93 88 -1 18 -3 38 -3 45 -1
15 -74 15 -126 0z m107 -40 c10 -59 -45 -95 -83 -55 -11 12 -17 27 -14 35 3 7
5 19 5 26 0 8 17 13 44 15 39 2 45 -1 48 -21z"/>
<path d="M962 1633 c20 -72 87 -199 130 -244 47 -50 101 -79 142 -75 13 2 30
-1 38 -5 9 -6 10 -9 1 -9 -25 0 -71 -58 -88 -110 -20 -61 -22 -146 -5 -210 7
-25 13 -49 14 -55 8 -36 30 -95 36 -95 4 0 5 18 3 40 -5 43 9 121 31 175 9 20
14 37 13 40 -5 12 134 133 181 158 60 31 128 56 157 57 19 1 19 2 -2 10 -37
15 -105 24 -187 23 -79 0 -79 0 -55 18 13 10 27 19 31 19 11 0 42 26 107 88
58 54 54 65 -13 37 -87 -37 -240 -39 -329 -5 -71 27 -144 84 -177 138 -31 51
-41 53 -28 5z"/>
<path d="M2620 1661 c0 -7 -4 -9 -10 -6 -5 3 -10 0 -10 -8 0 -25 -70 -95 -127
-128 -70 -40 -138 -56 -229 -54 -76 2 -175 23 -186 39 -4 6 -10 7 -15 3 -10
-11 108 -122 157 -147 22 -11 40 -22 40 -25 0 -2 -33 -4 -72 -3 -87 1 -179
-10 -192 -23 -6 -6 -6 -9 2 -10 14 -2 31 -6 35 -9 1 -1 10 -3 19 -5 31 -6 132
-59 158 -82 14 -13 28 -23 32 -23 4 0 27 -28 51 -62 53 -74 77 -148 77 -235 0
-38 4 -63 11 -63 5 0 7 5 4 10 -4 6 -1 17 5 25 7 8 10 15 7 15 -3 0 3 30 14
68 27 92 27 208 0 276 -11 28 -58 76 -73 76 -5 0 -8 6 -8 13 0 9 13 13 43 12
27 0 52 6 72 20 42 28 95 81 95 94 0 6 5 11 10 11 6 0 10 6 10 14 0 7 7 19 15
26 8 7 13 15 10 19 -2 4 4 21 14 37 21 35 53 126 46 132 -3 3 -5 0 -5 -7z"/>
<path d="M1780 1619 c0 -22 22 -49 39 -49 6 0 11 -5 11 -10 0 -6 18 -9 40 -7
38 3 100 44 100 67 0 19 -28 10 -44 -14 -26 -40 -98 -37 -111 5 -9 26 -35 33
-35 8z"/>
<path d="M1852 1628 c6 -17 38 -19 38 -2 0 8 -9 14 -21 14 -11 0 -19 -5 -17
-12z"/>
<path d="M1671 1544 c-17 -7 -31 -17 -31 -22 0 -18 14 -21 41 -7 37 20 61 10
57 -24 -2 -17 -13 -31 -32 -40 -26 -12 -28 -15 -13 -26 10 -7 28 -11 40 -10
13 2 24 -2 25 -9 1 -6 3 -23 6 -38 3 -20 -1 -29 -15 -33 -31 -10 -55 3 -84 45
-15 22 -34 40 -41 40 -21 0 -17 -10 21 -64 19 -27 35 -46 35 -42 0 5 6 3 14
-3 35 -29 99 6 102 56 0 18 7 27 19 29 10 2 32 17 48 34 35 38 67 37 78 -1 14
-55 -14 -105 -46 -79 -14 11 -25 3 -25 -18 0 -9 3 -12 7 -9 3 4 12 2 19 -4 18
-15 52 -2 66 24 12 24 13 98 0 106 -5 3 -12 14 -15 25 -4 10 -13 16 -21 13 -8
-3 -16 -2 -18 4 -2 5 -16 -3 -33 -17 -51 -45 -73 -56 -95 -49 -17 5 -19 12
-14 44 11 70 -30 102 -95 75z"/>
<path d="M813 1507 l-22 -12 22 -37 c41 -67 107 -105 155 -87 58 21 59 55 4
107 -45 42 -113 54 -159 29z"/>
<path d="M2642 1502 c-35 -19 -72 -67 -72 -93 0 -32 80 -50 123 -28 53 28 111
109 87 124 -27 16 -106 15 -138 -3z"/>
<path d="M3054 1470 c-42 -9 -52 -17 -67 -48 -14 -29 -14 -43 -3 -84 12 -43
46 -58 151 -64 81 -5 95 -4 95 9 0 12 -21 16 -100 22 -67 5 -103 12 -111 22
-17 20 -15 81 3 100 17 16 99 21 174 9 32 -4 43 -2 48 9 3 8 2 16 -2 16 -4 1
-29 3 -56 5 -27 2 -61 5 -75 7 -14 2 -40 1 -57 -3z"/>
<path d="M569 1456 c-2 -3 -36 -7 -74 -10 -127 -10 -154 -18 -151 -43 3 -17
38 -40 74 -48 58 -12 123 -32 132 -41 6 -6 -21 -27 -80 -59 -49 -28 -92 -58
-95 -67 -12 -34 4 -41 74 -33 36 4 84 9 106 11 65 6 85 13 79 28 -5 13 -36 14
-99 3 -78 -14 -115 -17 -115 -9 0 13 50 33 63 26 7 -4 9 -4 5 1 -7 7 51 51 61
46 2 -2 7 1 10 6 3 4 15 13 26 19 23 13 32 50 13 52 -7 0 -24 3 -38 7 -14 3
-32 8 -40 10 -8 2 -16 4 -17 5 -4 3 -13 6 -58 15 -51 10 -79 24 -50 25 11 1
29 3 40 5 11 3 51 9 88 14 74 10 83 14 72 30 -6 11 -18 14 -26 7z"/>
<path d="M1679 1253 c-1 -10 0 -22 1 -28 3 -13 3 -19 -3 -95 -13 -151 -96
-284 -219 -346 -26 -13 -51 -24 -55 -25 -21 0 -53 -12 -53 -18 0 -10 137 -4
211 9 100 18 186 77 210 143 7 20 16 37 19 37 3 0 15 -21 27 -48 25 -55 55
-80 133 -109 81 -32 238 -50 285 -33 15 5 11 8 -20 14 -105 19 -214 104 -261
203 -13 29 -24 54 -24 55 1 2 -4 17 -10 33 -6 17 -13 56 -15 88 -2 32 -6 61
-8 64 -3 2 -1 19 4 36 12 41 12 41 -6 23 -14 -14 -55 -94 -61 -121 -2 -5 -10
-28 -18 -50 -8 -22 -15 -48 -16 -58 0 -28 -25 1 -28 32 -3 30 -29 103 -53 148
-10 17 -16 33 -14 35 2 1 -3 9 -11 16 -12 11 -14 10 -15 -5z"/>
<path d="M2962 1208 c-16 -21 -31 -87 -21 -94 5 -3 7 -9 4 -14 -7 -12 40 -40
68 -40 15 0 38 15 61 40 39 42 74 51 96 25 10 -12 8 -22 -9 -54 -22 -44 -14
-62 14 -30 24 25 25 91 3 113 -29 29 -74 20 -119 -24 -23 -22 -48 -40 -56 -40
-19 0 -39 21 -37 40 0 8 2 25 2 37 1 12 9 29 18 37 13 13 13 16 1 16 -8 0 -19
-6 -25 -12z"/>
<path d="M1048 1066 c-41 -27 -57 -59 -60 -122 -3 -60 6 -77 35 -68 60 18 106
76 111 138 6 65 -33 88 -86 52z"/>
<path d="M2472 1079 c-41 -15 -26 -117 24 -165 30 -28 85 -48 94 -33 12 18 4
117 -10 134 -7 8 -9 15 -5 15 5 0 0 9 -9 19 -24 27 -66 40 -94 30z"/>
<path d="M558 1066 c-80 -29 -119 -73 -112 -130 3 -29 51 -89 64 -81 5 3 10
-1 13 -9 8 -19 76 -12 129 14 30 14 57 49 63 82 5 24 -25 97 -46 114 -24 20
-72 24 -111 10z m91 -37 c68 -43 37 -145 -51 -163 -12 -3 -33 -7 -45 -10 -13
-3 -23 -1 -23 5 0 5 -9 9 -19 9 -19 0 -33 31 -37 77 -2 32 35 72 81 87 43 15
62 14 94 -5z"/>
<path d="M2875 979 c-8 -11 3 -29 17 -29 6 0 37 -13 70 -30 32 -16 65 -30 72
-30 7 0 20 -8 29 -18 13 -14 14 -21 5 -30 -7 -7 -9 -12 -5 -12 4 0 3 -9 -3
-20 -8 -16 -8 -20 4 -20 8 0 19 12 24 28 6 15 22 50 36 79 21 44 22 52 9 57
-10 4 -13 2 -10 -8 6 -15 -22 -46 -42 -46 -7 0 -43 14 -79 32 -116 55 -121 57
-127 47z"/>
<path d="M1545 703 c-16 -9 -37 -23 -48 -33 -25 -24 -47 -91 -36 -111 4 -9 5
-19 2 -23 -15 -15 44 -4 83 16 73 36 90 64 86 138 -2 20 -8 25 -30 26 -16 1
-41 -5 -57 -13z"/>
<path d="M1954 709 c-4 -6 -7 -30 -7 -52 0 -35 6 -46 38 -74 21 -18 46 -33 56
-33 10 0 21 -4 24 -10 3 -5 15 -10 26 -10 51 0 33 111 -25 154 -37 28 -101 42
-112 25z"/>
</g>
</svg>
